<?xml version="1.0" encoding="UTF-8" standalone="no"?>
<!DOCTYPE svg PUBLIC "-//W3C//DTD SVG 1.1//EN" "http://www.w3.org/Graphics/SVG/1.1/DTD/svg11.dtd">
<svg width="100%" height="100%" viewBox="0 0 260 260" version="1.1" xmlns="http://www.w3.org/2000/svg" xmlns:xlink="http://www.w3.org/1999/xlink" xml:space="preserve" xmlns:serif="http://www.serif.com/" style="fill-rule:evenodd;clip-rule:evenodd;stroke-linejoin:round;stroke-miterlimit:2;">
    <g transform="matrix(1.33152e-17,-0.217453,0.274972,1.68372e-17,-152.089,419.102)">
        <g transform="matrix(2.53681e-17,0.327631,-0.414293,2.00616e-17,1472.15,-5020.89)">
            <path d="M19819.5,-757.348C19819.5,-908.169 19697,-1030.62 19546.2,-1030.62L17360.1,-1030.62C17209.3,-1030.62 17086.8,-908.169 17086.8,-757.348L17086.8,1428.8C17086.8,1579.62 17209.3,1702.07 17360.1,1702.07L19546.2,1702.07C19697,1702.07 19819.5,1579.62 19819.5,1428.8L19819.5,-757.348Z"/>
        </g>
        <g transform="matrix(3.76792e-17,0.486629,-0.615347,2.97974e-17,2461.29,-7773.38)">
            <path d="M18792.5,1109.49C18796.7,1110.63 18798,1110.66 18801.8,1112.9C18807.6,1116.24 18812.2,1121.64 18814.5,1127.94C18816,1132.14 18815.8,1133.35 18816.2,1137.75L18816.2,2552.41C18815.8,2556.82 18816,2558.02 18814.5,2562.23C18811.6,2570.1 18805.2,2576.52 18797.3,2579.39C18793.1,2580.92 18791.9,2580.73 18787.5,2581.12L17357.4,2581.12C17353,2580.73 17351.8,2580.92 17347.6,2579.39C17339.7,2576.52 17333.3,2570.1 17330.4,2562.23C17328.9,2558.02 17329.1,2556.82 17328.7,2552.41L17328.7,1137.75C17329.1,1133.35 17328.9,1132.14 17330.4,1127.94C17333.3,1120.06 17339.7,1113.64 17347.6,1110.78C17351.8,1109.25 17353,1109.44 17357.4,1109.05L18787.5,1109.05C18789.2,1109.19 18790.8,1109.34 18792.5,1109.49ZM17386.1,1166.46L17386.1,2523.71L18758.8,2523.71L18758.8,1166.46L17386.1,1166.46Z" style="fill:white;"/>
        </g>
        <g transform="matrix(-4.82273,4.67069e-16,-5.90614e-16,-3.81391,9051.24,6875.51)">
            <g>
                <path d="M1551.87,1518.14C1559.44,1499.29 1577.72,1484.61 1599.27,1483.48C1600.26,1483.43 1601.26,1483.41 1602.26,1483.41C1611.42,1483.47 1622.62,1485.31 1622.57,1493.8C1622.54,1499.68 1616.01,1503.27 1610.13,1501.91C1593.95,1498.28 1575.81,1507.11 1568.9,1522.48L1571.89,1520.76C1572.58,1520.38 1572.79,1520.31 1573.2,1520.17C1574.04,1519.89 1574.91,1519.78 1575.8,1519.8C1581.8,1520.17 1585.46,1529.35 1579.07,1533.19L1558.85,1544.86C1556.23,1546.31 1552.9,1545.64 1550.64,1543.74C1549.98,1543.2 1549.4,1542.54 1548.95,1541.79L1537.28,1521.57C1534.85,1517.18 1537.95,1510.83 1543.57,1510.8C1543.65,1510.81 1543.73,1510.81 1543.81,1510.81C1544.59,1510.86 1544.81,1510.91 1545.24,1511.02C1547.12,1511.49 1548.54,1512.45 1549.71,1514.39L1551.87,1518.14ZM1558,1527.57C1558.12,1527.04 1558.24,1526.52 1558.38,1526C1558.42,1525.85 1558.76,1524.33 1558.08,1527.22C1558.05,1527.34 1558.03,1527.45 1558,1527.57L1558,1527.59L1557.99,1527.62L1557.99,1527.62L1557.99,1527.63C1557.93,1527.9 1557.87,1528.17 1557.82,1528.44L1557.82,1528.44C1557.87,1528.17 1557.93,1527.9 1557.99,1527.63L1557.99,1527.62L1558,1527.57ZM1558.69,1524.85C1560.02,1520.29 1562.04,1515.99 1564.66,1512.08C1562,1516.05 1560.1,1519.98 1558.69,1524.85C1558.39,1525.91 1558.57,1525.28 1558.69,1524.85ZM1584.33,1495.85C1585.58,1495.32 1587.78,1494.51 1586.37,1495.04C1585.68,1495.29 1585,1495.56 1584.33,1495.85C1584.28,1495.87 1584.24,1495.89 1584.19,1495.91C1583.58,1496.17 1582.98,1496.45 1582.38,1496.74C1575.93,1499.87 1570.24,1504.57 1565.92,1510.31L1565.91,1510.33L1565.88,1510.36L1565.85,1510.41L1565.83,1510.43C1565.65,1510.68 1565.47,1510.92 1565.29,1511.18C1565.19,1511.31 1565.1,1511.44 1565,1511.58C1565.27,1511.19 1565.55,1510.81 1565.83,1510.43L1565.88,1510.36L1565.92,1510.31C1570.68,1503.99 1577.04,1498.98 1584.33,1495.85ZM1592.03,1493.34L1592.1,1493.32C1593.3,1493.05 1593.01,1493.1 1592.03,1493.34C1590.53,1493.68 1589.05,1494.1 1587.59,1494.6C1587.44,1494.65 1587.28,1494.71 1587.13,1494.76C1588.86,1494.16 1590.9,1493.62 1592.03,1493.34ZM1612.08,1493.34C1612.98,1493.54 1615.96,1494.19 1611.8,1493.27C1610.98,1493.09 1611.64,1493.24 1612.08,1493.34ZM1610.39,1492.98C1606.87,1492.33 1603.29,1492.09 1599.72,1492.27C1603.13,1492.1 1606.54,1492.3 1609.88,1492.89C1611.55,1493.19 1610.84,1493.07 1610.39,1492.98ZM1595.95,1492.62C1596.84,1492.5 1597.73,1492.41 1598.62,1492.34C1600.92,1492.16 1598.47,1492.28 1595.95,1492.62L1595.88,1492.63L1595.85,1492.64C1595.77,1492.65 1595.69,1492.66 1595.61,1492.67C1595.49,1492.69 1594.77,1492.79 1595.88,1492.63L1595.85,1492.64L1595.95,1492.62Z" style="fill:white;"/>
            </g>
            <g transform="matrix(-0.998975,0.0452543,-0.0452543,-0.998975,3270.84,2995.91)">
                <path d="M1551.87,1518.14C1559.44,1499.29 1577.72,1484.61 1599.27,1483.48C1600.26,1483.43 1601.26,1483.41 1602.26,1483.41C1611.42,1483.47 1622.62,1485.31 1622.57,1493.8C1622.54,1499.68 1616.01,1503.27 1610.13,1501.91C1593.95,1498.28 1575.81,1507.11 1568.9,1522.48L1571.89,1520.76C1572.58,1520.38 1572.79,1520.31 1573.2,1520.17C1574.04,1519.89 1574.91,1519.78 1575.8,1519.8C1581.8,1520.17 1585.46,1529.35 1579.07,1533.19L1558.85,1544.86C1556.23,1546.31 1552.9,1545.64 1550.64,1543.74C1549.98,1543.2 1549.4,1542.54 1548.95,1541.79L1537.28,1521.57C1534.85,1517.18 1537.95,1510.83 1543.57,1510.8C1543.65,1510.81 1543.73,1510.81 1543.81,1510.81C1544.59,1510.86 1544.81,1510.91 1545.24,1511.02C1547.12,1511.49 1548.54,1512.45 1549.71,1514.39L1551.87,1518.14ZM1558,1527.57C1558.12,1527.04 1558.24,1526.52 1558.38,1526C1558.42,1525.85 1558.76,1524.33 1558.08,1527.22C1558.05,1527.34 1558.03,1527.45 1558,1527.57L1558,1527.59L1557.99,1527.62L1557.99,1527.62L1557.99,1527.63C1557.93,1527.9 1557.87,1528.17 1557.82,1528.44L1557.82,1528.44C1557.87,1528.17 1557.93,1527.9 1557.99,1527.63L1557.99,1527.62L1558,1527.57ZM1558.69,1524.85C1560.02,1520.29 1562.04,1515.99 1564.66,1512.08C1562,1516.05 1560.1,1519.98 1558.69,1524.85C1558.39,1525.91 1558.57,1525.28 1558.69,1524.85ZM1584.33,1495.85C1585.58,1495.32 1587.78,1494.51 1586.37,1495.04C1585.68,1495.29 1585,1495.56 1584.33,1495.85C1584.28,1495.87 1584.24,1495.89 1584.19,1495.91C1583.58,1496.17 1582.98,1496.45 1582.38,1496.74C1575.93,1499.87 1570.24,1504.57 1565.92,1510.31L1565.91,1510.33L1565.88,1510.36L1565.85,1510.41L1565.83,1510.43C1565.65,1510.68 1565.47,1510.92 1565.29,1511.18C1565.19,1511.31 1565.1,1511.44 1565,1511.58C1565.27,1511.19 1565.55,1510.81 1565.83,1510.43L1565.88,1510.36L1565.92,1510.31C1570.68,1503.99 1577.04,1498.98 1584.33,1495.85ZM1592.03,1493.34L1592.1,1493.32C1593.3,1493.05 1593.01,1493.1 1592.03,1493.34C1590.53,1493.68 1589.05,1494.1 1587.59,1494.6C1587.44,1494.65 1587.28,1494.71 1587.13,1494.76C1588.86,1494.16 1590.9,1493.62 1592.03,1493.34ZM1612.08,1493.34C1612.98,1493.54 1615.96,1494.19 1611.8,1493.27C1610.98,1493.09 1611.64,1493.24 1612.08,1493.34ZM1610.39,1492.98C1606.87,1492.33 1603.29,1492.09 1599.72,1492.27C1603.13,1492.1 1606.54,1492.3 1609.88,1492.89C1611.55,1493.19 1610.84,1493.07 1610.39,1492.98ZM1595.95,1492.62C1596.84,1492.5 1597.73,1492.41 1598.62,1492.34C1600.92,1492.16 1598.47,1492.28 1595.95,1492.62L1595.88,1492.63L1595.85,1492.64C1595.77,1492.65 1595.69,1492.66 1595.61,1492.67C1595.49,1492.69 1594.77,1492.79 1595.88,1492.63L1595.85,1492.64L1595.95,1492.62Z" style="fill:white;"/>
            </g>
        </g>
    </g>
</svg>
