<?xml version="1.0" encoding="UTF-8" standalone="no"?>
<!DOCTYPE svg PUBLIC "-//W3C//DTD SVG 1.1//EN" "http://www.w3.org/Graphics/SVG/1.1/DTD/svg11.dtd">

<?xml-stylesheet type="text/css" href="../css/themes.css" ?>    
<svg width="100%" height="100%" viewBox="0 0 231 75" version="1.1" xmlns="http://www.w3.org/2000/svg" xmlns:xlink="http://www.w3.org/1999/xlink" xml:space="preserve" xmlns:serif="http://www.serif.com/" style="fill-rule:evenodd;clip-rule:evenodd;stroke-linejoin:round;stroke-miterlimit:2;">

    <g id="logo" serif:id="Plan de travail1" transform="matrix(1,0,0,1,-14.5169,-166.7)">
        <rect x="14.517" y="166.7" width="230.64" height="74.379" style="fill:none;"/>
        <g transform="matrix(1.23632,0,0,1.71994,3.92516,5.85475)">
            <path d="M181.372,97.829C182.922,98.097 183.101,98.325 183.217,99.382L183.217,130C183.08,131.245 182.649,131.481 181.03,131.572L23.758,131.572C22.025,131.474 21.698,131.164 21.571,130L21.571,99.382C21.707,98.137 22.138,97.902 23.758,97.81L181.03,97.81C181.144,97.817 181.258,97.823 181.372,97.829ZM25.945,100.954L25.945,128.428L178.842,128.428L178.842,100.954L25.945,100.954Z"/>
        </g>
        <g transform="matrix(0.846178,0,0,0.846178,18.4808,165.025)">
            <g transform="matrix(50,0,0,50,25.9378,62.9112)">
                <path d="M0.045,-0.23L0.134,-0.238C0.139,-0.202 0.148,-0.173 0.164,-0.15C0.179,-0.127 0.203,-0.108 0.236,-0.094C0.268,-0.08 0.305,-0.073 0.346,-0.073C0.382,-0.073 0.414,-0.078 0.441,-0.089C0.469,-0.1 0.49,-0.114 0.503,-0.133C0.517,-0.152 0.523,-0.172 0.523,-0.194C0.523,-0.217 0.517,-0.236 0.504,-0.253C0.491,-0.27 0.469,-0.284 0.439,-0.295C0.42,-0.303 0.378,-0.315 0.312,-0.33C0.246,-0.346 0.2,-0.361 0.174,-0.375C0.14,-0.393 0.114,-0.415 0.097,-0.442C0.081,-0.468 0.072,-0.498 0.072,-0.531C0.072,-0.567 0.083,-0.601 0.103,-0.632C0.124,-0.663 0.153,-0.687 0.193,-0.704C0.232,-0.72 0.276,-0.728 0.324,-0.728C0.377,-0.728 0.424,-0.719 0.465,-0.702C0.505,-0.685 0.536,-0.66 0.558,-0.627C0.58,-0.594 0.592,-0.556 0.593,-0.514L0.502,-0.507C0.498,-0.553 0.481,-0.587 0.453,-0.61C0.425,-0.633 0.383,-0.645 0.328,-0.645C0.271,-0.645 0.229,-0.634 0.203,-0.613C0.177,-0.592 0.164,-0.567 0.164,-0.537C0.164,-0.511 0.173,-0.49 0.191,-0.474C0.21,-0.457 0.257,-0.44 0.334,-0.423C0.411,-0.405 0.464,-0.39 0.493,-0.377C0.534,-0.358 0.565,-0.333 0.585,-0.304C0.605,-0.274 0.615,-0.241 0.615,-0.202C0.615,-0.164 0.604,-0.128 0.582,-0.094C0.56,-0.061 0.529,-0.035 0.488,-0.016C0.447,0.003 0.401,0.012 0.35,0.012C0.285,0.012 0.231,0.003 0.187,-0.016C0.143,-0.035 0.109,-0.063 0.084,-0.101C0.059,-0.139 0.046,-0.182 0.045,-0.23Z" style="fill-rule:nonzero;"/>
            </g>
            <g transform="matrix(50,0,0,50,59.2874,62.9112)">
                <path d="M0.079,0L0.079,-0.716L0.597,-0.716L0.597,-0.631L0.174,-0.631L0.174,-0.412L0.57,-0.412L0.57,-0.328L0.174,-0.328L0.174,-0.084L0.613,-0.084L0.613,0L0.079,0Z" style="fill-rule:nonzero;"/>
            </g>
            <g transform="matrix(50,0,0,50,92.6371,62.9112)">
                <path d="M0.02,0L0.02,-0.088L0.387,-0.546C0.413,-0.579 0.438,-0.607 0.461,-0.631L0.062,-0.631L0.062,-0.716L0.574,-0.716L0.574,-0.631L0.172,-0.135L0.129,-0.084L0.586,-0.084L0.586,0L0.02,0Z" style="fill-rule:nonzero;"/>
            </g>
        </g>
        <g transform="matrix(1.39062,0,0,1.39062,-19.7665,-84.8352)">
            <rect x="104.559" y="195.807" width="1.199" height="22.521"/>
        </g>
    </g>
</svg>
